# xmcd
#
# Track frame offsets: 
#        150
#        21999
#        45114
#        47502
#        73015
#        101925
#        128012
#        150167
#        172216
#        196567
#        219973
#        226596
#        245830
#        266043
#        289602
#
# Disc length: 4199 seconds
#
# Revision: 0
# Processed by: cddbd v1.5.2PL0 Copyright (c) Steve Scherf et al.
# Submitted via: ExactAudioCopyFreeDBPlugin 1.0
#
DISCID=c510650f
DTITLE=Mister Savona - Havana Meets Kingston
DYEAR=2017
DGENRE=Blues
TTITLE0=Chan Chan (feat. Eugenio Rodríguez, Félix Baloy, Maikel Ante, 
TTITLE0=Solis)
TTITLE1=Carnival (feat. Randy Valentine, Solis)
TTITLE2=Interlude (El Cuarto De Tula)
TTITLE3=El Cuarto De Tula (feat. El Medico, Maikel Ante, Turbulence)
TTITLE4=410 San Miguel (feat. Ernest Ranglin)
TTITLE5=100 Pounds Of Collie Weed (feat. Cali P, Cornell Campbell, Exi
TTITLE5=le Di Brave, Leroy Sibbles, Lutan Fyah, Prince Alla, The Jewel
TTITLE5=s)
TTITLE6=Candela (feat. Eduardo Rodriguez Solis, Randy Valentine)
TTITLE7=In The Ghetto (Where We’re From) (feat. Aza Lineage, Birdz-I)
TTITLE8=Vibracion Positive (feat. Anyilena, Randy Valentine)
TTITLE9=Heart Of A Lion (feat. Brenda Navarrete, France Nooks, I-Maali
TTITLE9=, Lutan Fyah)
TTITLE10=Trumpet Interlude (feat. Julito Padrón)
TTITLE11=Carnival Horns (feat. Julito Padrón)
TTITLE12=La Sitiera (feat. Beatriz Márquez, Rolando Luna)
TTITLE13=Dubwise (feat. France Nooks, Prince Alla)
TTITLE14=Row Fisherman Row (feat. Prince Alla)
EXTD=
EXTT0=
EXTT1=
EXTT2=
EXTT3=
EXTT4=
EXTT5=
EXTT6=
EXTT7=
EXTT8=
EXTT9=
EXTT10=
EXTT11=
EXTT12=
EXTT13=
EXTT14=
PLAYORDER=
